<?xml version="1.0" encoding="utf-8"?>
<!-- Generator: Adobe Illustrator 23.0.3, SVG Export Plug-In . SVG Version: 6.00 Build 0)  -->
<svg version="1.1" xmlns="http://www.w3.org/2000/svg" xmlns:xlink="http://www.w3.org/1999/xlink" x="0px" y="0px"
	 viewBox="0 0 56.7 44.3" style="enable-background:new 0 0 56.7 44.3;" xml:space="preserve">
<style type="text/css">
	.st0{fill:#040404;}
	.st1{display:none;fill:#040404;}
</style>
<g id="Layer_4">
	<path class="st0" d="M50.6,20.8h-8.3v1.4h8.3c2.6,0,4.7,2.1,4.7,4.7v11.3c0,2.6-2.1,4.7-4.7,4.7H6.1c-2.6,0-4.7-2.1-4.7-4.7V26.9
		c0-2.6,2.1-4.7,4.7-4.7h7.4v-1.4H6.1c-3.4,0-6.1,2.7-6.1,6.1v11.3c0,3.4,2.7,6.1,6.1,6.1h44.5c3.4,0,6.1-2.7,6.1-6.1V26.9
		C56.7,23.6,53.9,20.8,50.6,20.8z"/>
</g>
<g id="Layer_1">
	<path class="st1" d="M25.8,32.1V8.3h-3.2V3.5c0.3-0.2,0.8-0.4,1.3-0.7c0.6-0.3,1-0.5,1.3-0.7c0.3-0.2,0.7-0.4,1-0.8
		C26.6,1,27,0.5,27.2,0H32v32.1H25.8z"/>
	<path class="st1" d="M36.5,8.8c0,1.4-0.2,2.8-0.7,4.2c-0.4,1.4-1.1,2.7-1.9,4c-0.8,1.3-1.6,2.4-2.4,3.4c-0.8,1-1.7,2.1-2.7,3.3
		c-1.1,1.2-1.8,2.2-2.3,2.8h10v6.2H19.4v-5.5L27.2,16c0.5-0.7,0.8-1.2,1.1-1.7c0.3-0.5,0.6-1,1-1.7c0.3-0.7,0.6-1.3,0.8-1.9
		c0.2-0.6,0.3-1.3,0.3-1.9c0-0.4,0-0.7-0.1-1.1C30.1,7.3,30,7,29.8,6.6C29.6,6.3,29.4,6,29,5.7c-0.3-0.2-0.7-0.3-1.1-0.3
		c-0.3,0-0.6,0.1-0.9,0.2c-0.3,0.2-0.5,0.4-0.7,0.6c-0.2,0.3-0.3,0.6-0.4,0.9c-0.1,0.3-0.2,0.7-0.2,1.1c0,0.4-0.1,0.8-0.1,1.2
		c0,0.4-0.1,0.8,0,1.1c0,0.4,0,0.7,0,1c0,0.2,0,0.3,0,0.4h-6.1v-2c0-1.2,0.1-2.3,0.3-3.2c0.2-1,0.5-1.9,0.9-2.7
		c0.4-0.8,1-1.6,1.6-2.1c0.7-0.6,1.5-1,2.4-1.4C25.6,0.2,26.7,0,28,0c2.7,0,4.8,0.8,6.3,2.4C35.7,4,36.5,6.1,36.5,8.8z"/>
	<path class="st0" d="M19.4,22.4h6.2c0,0.1,0,0.2,0,0.4c0,0.4,0,0.7,0,0.9c0,0.2,0,0.5,0,0.9c0,0.4,0.1,0.8,0.1,1
		c0.1,0.3,0.1,0.5,0.3,0.9c0.1,0.3,0.3,0.6,0.4,0.8c0.2,0.2,0.4,0.3,0.7,0.5c0.3,0.1,0.6,0.2,0.9,0.2s0.6-0.1,0.9-0.2
		c0.3-0.1,0.5-0.3,0.6-0.4c0.2-0.2,0.3-0.4,0.4-0.7c0.1-0.3,0.2-0.6,0.3-0.8c0.1-0.2,0.1-0.5,0.1-0.9c0-0.4,0-0.7,0-0.8
		c0-0.2,0-0.4,0-0.8c0-1.5-0.4-2.6-1.1-3.4c-0.7-0.8-1.8-1.2-3.3-1.2v-6.2c0.7,0,1.3,0,1.8-0.1c0.5-0.1,1-0.3,1.4-0.5
		c0.4-0.2,0.7-0.6,0.9-1.1c0.2-0.5,0.3-1.1,0.3-1.8c0-0.5,0-0.9-0.1-1.3c-0.1-0.4-0.2-0.7-0.3-1.1c-0.2-0.4-0.4-0.6-0.7-0.8
		c-0.3-0.2-0.7-0.3-1.2-0.3c-0.3,0-0.6,0.1-0.9,0.2c-0.3,0.1-0.5,0.3-0.7,0.5c-0.2,0.2-0.3,0.4-0.4,0.8c-0.1,0.3-0.2,0.6-0.3,0.9
		c-0.1,0.3-0.1,0.6-0.1,1c0,0.4,0,0.7,0,0.9c0,0.2,0,0.5,0,0.9c0,0.1,0,0.2,0,0.3h-6.2v-2c0-2.8,0.8-4.9,2.3-6.5
		C23.1,0.8,25.2,0,28,0c2.7,0,4.9,0.8,6.4,2.4c1.5,1.6,2.3,3.8,2.3,6.5c0,1.3-0.3,2.6-0.8,3.9c-0.6,1.2-1.4,2.2-2.4,2.8
		c1.1,0.8,2,1.9,2.5,3.3c0.5,1.4,0.8,2.8,0.8,4.4c0,1.5-0.2,2.8-0.5,4c-0.3,1.2-0.8,2.2-1.5,3.2c-0.7,0.9-1.6,1.6-2.7,2.1
		c-1.1,0.5-2.5,0.7-4,0.7c-1.3,0-2.5-0.2-3.5-0.5c-1-0.3-1.8-0.8-2.5-1.4c-0.6-0.6-1.2-1.3-1.6-2.1c-0.4-0.9-0.7-1.8-0.9-2.7
		c-0.2-1-0.3-2-0.3-3.2V22.4z"/>
</g>
</svg>
