<?xml version="1.0" encoding="utf-8"?>
<!-- Generator: Adobe Illustrator 23.0.3, SVG Export Plug-In . SVG Version: 6.00 Build 0)  -->
<svg version="1.1" id="Layer_1" xmlns="http://www.w3.org/2000/svg" xmlns:xlink="http://www.w3.org/1999/xlink" x="0px" y="0px"
	 viewBox="0 0 300 300" style="enable-background:new 0 0 300 300;" xml:space="preserve">
<style type="text/css">
	.st0{fill:#4D4D4D;}
</style>
<path class="st0" d="M300,150c0-41.3-14.7-76.6-44-106c-19.1-19.1-40.7-31.9-64.8-38.6v69.2c7,3.9,13.6,8.9,19.7,15
	c16.8,16.8,25.3,37.2,25.3,61.2c0,23.8-8.4,44.1-25.3,60.9c-6.1,6.1-12.7,11.1-19.7,15v67.8c16.2-4.5,31.3-11.7,45.3-21.8
	c0.8,7,3.9,13,9.1,18c6.3,6.3,13.7,9.4,22.4,9.4h0.5c8.9,0,16.2-3.1,22.1-9.4c6.3-5.9,9.4-13.3,9.4-22.1V154.3
	c0-0.1-0.1-0.1-0.1-0.2C299.9,152.7,300,151.4,300,150z"/>
<path class="st0" d="M176.7,232.9c-8.3,2.7-17.2,4-26.7,4c-24,0-44.4-8.4-61.2-25.3c-16.7-16.8-25-37.2-25-60.9
	c0-24,8.3-44.4,25-61.2C105.6,72.7,126,64.3,150,64.3c9.4,0,18.3,1.4,26.7,4V2.2C168.1,0.8,159.2,0,150,0
	c-32.6,0-61.4,9.2-86.5,27.4c-0.9-6.8-3.9-12.8-9.1-18C48.5,3.1,41.1,0,32.3,0h-0.5C23.1,0,15.6,3.1,9.4,9.4S0,23.1,0,31.8v236.7
	c0,8.9,3.1,16.2,9.4,22.1c6.3,6.3,13.7,9.4,22.4,9.4h0.5c8.9,0,16.2-3.1,22.1-9.4c5.2-4.9,8.3-10.9,9.1-18
	C88.6,290.9,117.5,300,150,300c9.2,0,18.1-0.8,26.7-2.3V232.9z"/>
</svg>
