<?xml version="1.0" encoding="utf-8"?>
<!-- Generator: Adobe Illustrator 23.0.3, SVG Export Plug-In . SVG Version: 6.00 Build 0)  -->
<svg version="1.1" id="Isolation_Mode" xmlns="http://www.w3.org/2000/svg" xmlns:xlink="http://www.w3.org/1999/xlink" x="0px"
	 y="0px" viewBox="0 0 220 50" style="enable-background:new 0 0 220 50;" xml:space="preserve">
<style type="text/css">
	.st0{fill:#040404;}
</style>
<g>
	<path class="st0" d="M220,50.8h-52.5c-0.4,0-0.8-0.3-0.8-0.8s0.3-0.8,0.8-0.8h51.7V0.8H182c-0.4,0-0.8-0.3-0.8-0.8s0.3-0.8,0.8-0.8
		h38c0.4,0,0.8,0.3,0.8,0.8v50C220.8,50.4,220.4,50.8,220,50.8z"/>
	<path class="st0" d="M174,0.8H54.1c-0.4,0-0.8-0.3-0.8-0.8s0.3-0.8,0.8-0.8H174c0.4,0,0.8,0.3,0.8,0.8S174.4,0.8,174,0.8z"/>
	<path class="st0" d="M29,0.8h-4.7c-0.4,0-0.8-0.3-0.8-0.8s0.3-0.8,0.8-0.8H29c0.4,0,0.8,0.3,0.8,0.8S29.4,0.8,29,0.8z"/>
	<path class="st0" d="M98.2,50.8H0c-0.4,0-0.8-0.3-0.8-0.8V0c0-0.4,0.3-0.8,0.8-0.8h17.3c0.4,0,0.8,0.3,0.8,0.8s-0.3,0.8-0.8,0.8
		H0.8v48.5h97.5c0.4,0,0.8,0.3,0.8,0.8S98.7,50.8,98.2,50.8z"/>
	<path class="st0" d="M115.5,50.8H110c-0.4,0-0.8-0.3-0.8-0.8s0.3-0.8,0.8-0.8h5.5c0.4,0,0.8,0.3,0.8,0.8S115.9,50.8,115.5,50.8z"/>
	<path class="st0" d="M153,50.8h-25.5c-0.4,0-0.8-0.3-0.8-0.8s0.3-0.8,0.8-0.8H153c0.4,0,0.8,0.3,0.8,0.8S153.4,50.8,153,50.8z"/>
</g>
</svg>
