<?xml version="1.0" encoding="utf-8"?>
<!-- Generator: Adobe Illustrator 23.0.3, SVG Export Plug-In . SVG Version: 6.00 Build 0)  -->
<svg version="1.1" id="Layer_1" xmlns="http://www.w3.org/2000/svg" xmlns:xlink="http://www.w3.org/1999/xlink" x="0px" y="0px"
	 viewBox="0 0 244.9 180.1" style="enable-background:new 0 0 244.9 180.1;" xml:space="preserve">
<style type="text/css">
	.st0{fill-rule:evenodd;clip-rule:evenodd;fill:#040404;}
	.st1{fill:none;stroke:#040404;stroke-width:0.216;stroke-miterlimit:22.9256;}
	.st2{fill:#040404;}
	.st3{fill-rule:evenodd;clip-rule:evenodd;fill:#FFFFFF;}
	.st4{fill-rule:evenodd;clip-rule:evenodd;fill:#818181;}
	.st5{fill:#FFFFFF;}
	.st6{fill:#818181;}
</style>
<ellipse transform="matrix(0.5341 -0.8454 0.8454 0.5341 -19.962 143.886)" class="st0" cx="120.6" cy="90.1" rx="90.4" ry="89.3"/>
<ellipse transform="matrix(0.5341 -0.8454 0.8454 0.5341 -19.962 143.886)" class="st1" cx="120.6" cy="90.1" rx="90.4" ry="89.3"/>
<path class="st0" d="M8.9,86.6l213.6-42.4c4.1-0.8,9.2,0.5,11.2,4.5c0.3,0.5,0.4,1.1,0.6,1.7l10.3,51.8c0.1,0.6,0.2,1.2,0.1,1.8
	c-0.3,4.5-4.5,7.6-8.6,8.4L22.4,154.8c-4.1,0.8-9.2-0.5-11.2-4.5c-0.3-0.5-0.4-1.1-0.6-1.7L0.4,96.8c-0.1-0.6-0.2-1.2-0.1-1.8
	C0.6,90.6,4.8,87.4,8.9,86.6"/>
<path class="st2" d="M8.9,87L8.9,87z M8.9,86.2L8.9,87l-0.4,0.1l-0.4,0.1l-0.4,0.1l-0.4,0.1L7,87.5l-0.4,0.1l-0.4,0.2L5.9,88
	l-0.4,0.2l-0.4,0.2l-0.3,0.2l-0.3,0.2L4.2,89l-0.3,0.2l-0.3,0.2l-0.3,0.3L3,90l-0.3,0.3l-0.3,0.3l-0.2,0.3L2,91.2l-0.2,0.3l-0.2,0.3
	l-0.2,0.3l-0.2,0.3l-0.2,0.3l-0.1,0.4l-0.1,0.4l-0.1,0.4l-0.1,0.4l-0.1,0.4l0,0.4L0,95l0-0.4l0.1-0.4l0.1-0.4l0.1-0.4l0.1-0.4
	l0.1-0.4l0.2-0.4l0.2-0.4l0.2-0.4L1.4,91l0.2-0.3l0.3-0.3L2.1,90l0.3-0.3l0.3-0.3L3,89.1l0.3-0.3l0.3-0.3L4,88.4l0.3-0.2l0.4-0.2
	L5,87.7l0.4-0.2l0.4-0.2l0.4-0.2l0.4-0.2l0.4-0.2l0.4-0.1l0.4-0.1l0.4-0.1l0.4-0.1L8.9,86.2z M0.6,95.1L0.6,95.1z M0,95l0.6,0.1
	l0,0.1l0,0.1l0,0.1l0,0.1l0,0.1l0,0.1l0,0.1v0.1l0,0.1l0,0.1l0,0.1l0,0.1l0,0.1l0,0l0,0.1l0,0.1l0,0l0,0.1l0,0.1l0,0.1l0,0.1l0,0.1
	l0,0.1l0,0.1l0,0.1l0,0.1l0,0.1l0,0l0,0.1l0,0l0,0l0,0.1l-0.5,0.2l0-0.1l0-0.1l0-0.1l0-0.1l0-0.1l0-0.1l0-0.1l0-0.1l0-0.1l0-0.1
	l0-0.1l0-0.1l0-0.1l0-0.1L0,96L0,96l0-0.1l0-0.1l0-0.1l0-0.1l0-0.1l0-0.1l0-0.1l0-0.1v-0.1l0-0.1l0-0.1l0-0.1l0-0.1l0-0.1L0,95L0,95
	z M0.1,96.9l0.5-0.2L11,148.5l-0.5,0.2L0.1,96.9z M10.4,148.7L10.4,148.7z M10.4,148.7l0.5-0.2l0,0l0,0.1l0,0.1l0,0l0,0l0,0l0,0.1
	l0,0l0,0l0,0.1l0,0l0,0l0,0l0,0l0,0l0,0l0,0l0,0l0,0l0,0l0,0l0,0l0,0l0,0l0,0l0,0l0,0l0,0l0,0l0,0l0,0l0,0l-0.5,0.4l0-0.1l0-0.1
	l0-0.1l0-0.1l0-0.1l0-0.1l0-0.1l0-0.1l0-0.1l0-0.1l0-0.1l0-0.1l0-0.1l0-0.1l0-0.1l0-0.1l0-0.1l0-0.1l0-0.1l0-0.1l0-0.1l0-0.1l0-0.1
	l0-0.1l0-0.1l0-0.1l0-0.1l0-0.1l0-0.1l0-0.1L10.4,148.7L10.4,148.7z M11,150.5l0.5-0.4l0.2,0.4l0.2,0.3l0.2,0.3l0.2,0.3l0.2,0.3
	l0.3,0.3l0.3,0.3l0.3,0.3l0.3,0.2L14,153l0.3,0.2l0.3,0.2l0.3,0.2l0.4,0.2l0.4,0.2l0.4,0.1l0.4,0.1l0.4,0.1l0.4,0.1l0.4,0.1l0.4,0.1
	l0.4,0.1l0.4,0l0.4,0l0.4,0l0.4,0l0.4,0l0.4,0l0.4,0l0.4,0l0.4-0.1l0.4-0.1l0.1,0.7l-0.4,0.1l-0.4,0.1l-0.4,0l-0.4,0l-0.4,0l-0.4,0
	l-0.4,0l-0.4,0l-0.4,0l-0.4,0l-0.4-0.1l-0.4-0.1l-0.4-0.1l-0.4-0.1l-0.4-0.1l-0.4-0.1l-0.4-0.1l-0.4-0.2l-0.4-0.2l-0.4-0.2l-0.4-0.2
	l-0.3-0.2l-0.3-0.2l-0.3-0.3l-0.3-0.3l-0.3-0.3l-0.3-0.3l-0.3-0.3l-0.3-0.3l-0.2-0.4l-0.2-0.4L11,150.5z M22.5,155.2l-0.1-0.7
	l213.6-42.4l0.1,0.7L22.5,155.2z M235.9,112.1L235.9,112.1z M236,112.8l-0.1-0.7l0.4-0.1l0.4-0.1l0.4-0.1l0.4-0.1l0.4-0.1l0.4-0.1
	l0.4-0.2l0.4-0.2l0.4-0.2l0.4-0.2l0.3-0.2l0.3-0.2l0.3-0.2l0.3-0.2l0.3-0.2l0.3-0.3l0.3-0.3l0.3-0.3l0.3-0.3l0.2-0.3l0.2-0.3
	l0.2-0.3l0.2-0.3l0.2-0.3l0.2-0.3l0.2-0.3l0.1-0.4l0.1-0.4l0.1-0.4l0.1-0.4l0.1-0.4l0-0.4l0.6,0.1l0,0.4l-0.1,0.4l-0.1,0.4l-0.1,0.4
	l-0.1,0.4l-0.1,0.4l-0.2,0.4l-0.2,0.4l-0.2,0.4l-0.2,0.4l-0.2,0.3l-0.3,0.3l-0.3,0.3l-0.3,0.3l-0.3,0.3l-0.3,0.3l-0.3,0.3l-0.3,0.3
	l-0.3,0.2l-0.3,0.2l-0.4,0.2l-0.4,0.2l-0.4,0.2l-0.4,0.2l-0.4,0.2l-0.4,0.2l-0.4,0.2l-0.4,0.1l-0.4,0.1l-0.4,0.1l-0.4,0.1L236,112.8
	z M244.9,104L244.9,104z M244.9,104l-0.6-0.1l0-0.1l0-0.1l0-0.1l0-0.1l0-0.1l0-0.1l0-0.1v-0.1l0-0.1l0-0.1l0-0.1l0-0.1l0-0.1l0-0.1
	l0-0.1l0-0.1l0-0.1l0-0.1l0-0.1l0-0.1l0-0.1l0-0.1l0-0.1l0-0.1l0,0l0-0.1l0-0.1l0,0l0-0.1l0,0l0,0l0-0.1l0.5-0.2l0,0.1l0,0.1l0,0.1
	l0,0.1l0,0.1l0,0.1l0,0.1l0,0.1l0,0.1l0,0.1l0,0.1l0,0.1l0,0.1l0,0.1l0,0.1l0,0.1l0,0.1l0,0.1l0,0.1l0,0.1l0,0.1l0,0.1l0,0.1l0,0.1
	v0.1l0,0.1l0,0.1l0,0.1l0,0.1l0,0.1L244.9,104L244.9,104z M244.7,102.1l-0.5,0.2l-10.3-51.8l0.5-0.2L244.7,102.1z M234.5,50.3
	L234.5,50.3z M234.5,50.3l-0.5,0.2l0,0l0-0.1l0-0.1l0,0l0,0l0,0l0-0.1l0,0l0-0.1l0,0l0,0l0,0l0,0l0,0l0-0.1l0,0l0,0l0-0.1l0,0l0,0
	l0,0l0,0l0,0l0,0l0,0l0,0l0,0l0,0l0,0l0,0l0,0l0,0l0.5-0.4l0,0.1l0,0.1l0,0.1l0,0.1l0,0.1l0,0.1l0,0.1l0,0.1l0,0.1l0,0.1l0,0.1
	l0,0.1l0,0.1l0,0.1l0,0.1l0,0.1l0,0.1l0,0.1l0,0.1l0,0.1l0,0.1l0,0.1l0,0.1l0,0.1l0,0.1l0,0.1l0,0.1l0,0.1l0,0.1l0,0.1L234.5,50.3
	L234.5,50.3z M233.9,48.6l-0.5,0.4l-0.2-0.4l-0.2-0.3l-0.2-0.3l-0.2-0.3l-0.2-0.3l-0.3-0.3l-0.3-0.3l-0.3-0.3l-0.3-0.2l-0.3-0.2
	l-0.3-0.2l-0.3-0.2l-0.3-0.2l-0.4-0.2l-0.4-0.2l-0.4-0.1l-0.4-0.1l-0.4-0.1l-0.4-0.1l-0.4-0.1l-0.4-0.1l-0.4-0.1l-0.4,0l-0.4,0
	l-0.4,0l-0.4,0l-0.4,0l-0.4,0l-0.4,0l-0.4,0l-0.4,0.1l-0.4,0.1l-0.1-0.7l0.4-0.1l0.4-0.1l0.4,0l0.4,0l0.4,0l0.4,0l0.4,0l0.4,0l0.4,0
	l0.4,0l0.4,0.1l0.4,0.1l0.4,0.1l0.4,0.1l0.4,0.1l0.4,0.1l0.4,0.1l0.4,0.2l0.4,0.2l0.4,0.2l0.4,0.2l0.3,0.2l0.3,0.2l0.3,0.3l0.3,0.3
	l0.3,0.3l0.3,0.3l0.3,0.3l0.3,0.3l0.2,0.4l0.2,0.4L233.9,48.6z M222.4,43.9l0.1,0.7L8.9,87l-0.1-0.7L222.4,43.9z"/>
<path class="st3" d="M9.4,89l213.6-42.4c4.2-0.8,8.2,1.1,8.8,4.2l10.3,51.8c0.6,3.2-2.3,6.4-6.5,7.3L21.9,152.4
	c-4.2,0.8-8.2-1.1-8.8-4.2L2.9,96.3C2.2,93.2,5.2,89.9,9.4,89"/>
<path class="st2" d="M9.4,89.3L9.4,89.3z M9.3,88.8l0.1,0.5L9,89.4l-0.4,0.1l-0.4,0.1l-0.4,0.1l-0.3,0.1L7.3,90l-0.3,0.2l-0.3,0.2
	l-0.3,0.2L6,90.7l-0.3,0.2l-0.3,0.2l-0.3,0.2l-0.2,0.2l-0.2,0.2L4.5,92l-0.2,0.2l-0.2,0.2l-0.2,0.3L3.7,93l-0.1,0.3l-0.1,0.3
	l-0.1,0.3L3.2,94l-0.1,0.3l-0.1,0.3l0,0.3l0,0.3l0,0.3l0,0.3L3,96l0,0.3l-0.5,0.1l-0.1-0.3l0-0.3l0-0.3l0-0.3l0-0.3l0.1-0.3l0.1-0.3
	l0.1-0.3l0.1-0.3L3,93.3L3.2,93l0.2-0.3l0.2-0.3l0.2-0.3l0.2-0.3l0.2-0.3l0.2-0.3l0.2-0.2l0.3-0.2l0.3-0.2l0.3-0.2l0.3-0.2l0.3-0.2
	l0.3-0.2l0.3-0.2l0.3-0.2l0.4-0.2l0.4-0.1l0.4-0.1L8.5,89l0.4-0.1L9.3,88.8z M2.6,96.4l0.5-0.1l10.3,51.8l-0.5,0.1L2.6,96.4z
	 M13.4,148.1L13.4,148.1z M12.9,148.2l0.5-0.1l0.1,0.3l0.1,0.3l0.1,0.3l0.1,0.3l0.1,0.2l0.1,0.2l0.2,0.2l0.2,0.2l0.2,0.2l0.2,0.2
	l0.2,0.2l0.2,0.2l0.2,0.2l0.3,0.2l0.3,0.2l0.3,0.1l0.3,0.1l0.3,0.1l0.3,0.1l0.3,0.1l0.3,0.1l0.3,0.1l0.3,0.1l0.4,0l0.4,0l0.4,0
	l0.4,0l0.4,0l0.4,0l0.4,0l0.4-0.1l0.4-0.1l0.1,0.5l-0.4,0.1l-0.4,0.1l-0.4,0l-0.4,0l-0.4,0l-0.4,0l-0.4,0l-0.4,0l-0.4,0l-0.4-0.1
	l-0.4-0.1l-0.4-0.1l-0.3-0.1l-0.3-0.1l-0.3-0.1l-0.3-0.1l-0.3-0.2l-0.3-0.2l-0.3-0.2l-0.3-0.2l-0.3-0.2l-0.2-0.2l-0.2-0.2l-0.2-0.2
	l-0.2-0.2l-0.2-0.3l-0.2-0.3l-0.1-0.3l-0.1-0.3l-0.1-0.3l-0.1-0.3L12.9,148.2z M21.9,152.1L21.9,152.1l213.6-42.4l0.1,0.5L22,152.6
	L21.9,152.1z M235.6,110.2L235.6,110.2z M235.6,110.2l-0.1-0.5l0.4-0.1l0.4-0.1l0.4-0.1l0.4-0.1l0.3-0.1l0.3-0.1l0.3-0.2l0.3-0.2
	l0.3-0.2l0.3-0.2l0.3-0.2l0.3-0.2l0.3-0.2l0.2-0.2l0.2-0.2l0.2-0.2l0.2-0.2l0.2-0.2l0.2-0.3l0.2-0.3l0.1-0.3l0.1-0.3l0.1-0.3
	l0.1-0.3l0.1-0.3l0.1-0.3l0-0.3l0-0.3l0-0.3l0-0.3l0-0.3l0-0.3l0.5-0.1l0.1,0.3l0,0.3l0,0.3l0,0.3l0,0.3l-0.1,0.3l-0.1,0.3l-0.1,0.3
	l-0.1,0.3l-0.1,0.3l-0.1,0.3l-0.2,0.3l-0.2,0.3l-0.2,0.3l-0.2,0.3l-0.2,0.3l-0.2,0.3l-0.2,0.2l-0.3,0.2l-0.3,0.2l-0.3,0.2l-0.3,0.2
	l-0.3,0.2l-0.3,0.2l-0.3,0.2l-0.3,0.2l-0.4,0.2l-0.4,0.1l-0.4,0.1l-0.4,0.1l-0.4,0.1L235.6,110.2z M242.3,102.7l-0.5,0.1L231.5,51
	l0.5-0.1L242.3,102.7z M231.5,51L231.5,51z M232,50.9l-0.5,0.1l-0.1-0.3l-0.1-0.3l-0.1-0.3l-0.1-0.3l-0.1-0.2l-0.1-0.2l-0.2-0.2
	l-0.2-0.2l-0.2-0.2l-0.2-0.2l-0.2-0.2l-0.2-0.2l-0.2-0.2l-0.3-0.2l-0.3-0.2l-0.3-0.1l-0.3-0.1l-0.3-0.1l-0.3-0.1l-0.3-0.1L227,47
	l-0.3-0.1l-0.3-0.1l-0.4,0l-0.4,0l-0.4,0l-0.4,0l-0.4,0l-0.4,0l-0.4,0l-0.4,0.1l-0.4,0.1l-0.1-0.5l0.4-0.1l0.4-0.1l0.4,0l0.4,0
	l0.4,0l0.4,0l0.4,0l0.4,0l0.4,0l0.4,0.1l0.4,0.1l0.4,0.1l0.3,0.1l0.3,0.1l0.3,0.1l0.3,0.1l0.3,0.2l0.3,0.2l0.3,0.2l0.3,0.2l0.3,0.2
	l0.2,0.2l0.2,0.2l0.2,0.2l0.2,0.2l0.2,0.3l0.2,0.3l0.1,0.3l0.1,0.3l0.1,0.3l0.1,0.3L232,50.9z M223,46.9L223,46.9L9.4,89.3l-0.1-0.5
	l213.6-42.4L223,46.9z"/>
<path class="st4" d="M113.5,40.6c13.6-2.6,26.3,0,37.9,8c11.7,8,18.9,18.9,21.5,32.7c2.7,14,0.2,26.9-7.7,38.7
	c-7.9,11.7-18.9,19-32.9,21.7c-14,2.7-26.8,0.1-38.6-7.8c-11.8-8-19-18.9-21.7-32.9c-2.7-14.1-0.1-27,7.9-38.7
	C88,50.7,99.1,43.4,113.5,40.6"/>
<path class="st3" d="M118.2,69.1c-5.9,1.1-10.4,4.3-13.7,9.4c-3.3,5.1-4.4,10.7-3.2,16.8c1.2,6.1,4.3,10.9,9.3,14.4
	c5,3.5,10.4,4.7,16.2,3.6c5.9-1.2,10.5-4.3,13.8-9.4c3.3-5.1,4.3-10.7,3.1-16.9c-1.2-6.2-4.3-11-9.2-14.5
	C129.5,69.1,124.1,68,118.2,69.1"/>
<path class="st0" d="M166.1,102.7c3.6-0.7,7.2,1.7,7.9,5.4c0.7,3.7-1.6,7.3-5.3,8c-3.6,0.7-7.2-1.7-7.9-5.4
	C160.1,107,162.5,103.5,166.1,102.7"/>
<path class="st5" d="M175.4,54.1c-0.5,0.4-1.1,0.6-1.6,0.6c-0.5,0.1-1.1,0-1.5-0.1c-0.5-0.2-1-0.4-1.4-0.8c-0.4-0.4-0.8-0.8-1.2-1.3
	c-0.2-0.4-0.4-0.7-0.6-1c-0.1-0.3-0.3-0.6-0.3-0.9c-0.1-0.3-0.1-0.5-0.1-0.7c0-0.2,0-0.4,0-0.5c0-0.1,0.1-0.2,0.2-0.3
	c0.1-0.1,0.3-0.3,0.5-0.4c0.2-0.1,0.3-0.2,0.4-0.3c0.1-0.1,0.2-0.1,0.3-0.1c0.1,0,0.2,0,0.2,0c0.1,0,0.1,0.1,0.1,0.1
	c0,0.1,0.1,0.2,0.1,0.4c0,0.2,0,0.4,0.1,0.7c0,0.3,0.1,0.6,0.2,0.9c0.1,0.3,0.3,0.7,0.5,1.1c0.2,0.3,0.3,0.5,0.5,0.6
	c0.2,0.2,0.4,0.3,0.6,0.3c0.2,0.1,0.4,0.1,0.6,0c0.2,0,0.4-0.1,0.6-0.3c0.2-0.2,0.4-0.3,0.5-0.6c0.1-0.2,0.1-0.5,0.1-0.8
	c0-0.3,0-0.6-0.1-0.9c-0.1-0.3-0.1-0.7-0.2-1c-0.1-0.4-0.1-0.7-0.1-1.1c0-0.4,0-0.7,0.1-1.1c0.1-0.3,0.2-0.7,0.5-1
	c0.2-0.3,0.5-0.6,1-0.9c0.5-0.3,1-0.5,1.5-0.6c0.5-0.1,1,0,1.4,0.1c0.4,0.1,0.9,0.4,1.3,0.7c0.4,0.3,0.8,0.7,1.1,1.2
	c0.2,0.2,0.3,0.5,0.4,0.8c0.1,0.3,0.2,0.5,0.3,0.8c0.1,0.2,0.1,0.5,0.2,0.7c0,0.2,0,0.4,0,0.5c0,0.1,0,0.2-0.1,0.2
	c0,0-0.1,0.1-0.1,0.1c-0.1,0.1-0.1,0.1-0.2,0.2c-0.1,0.1-0.2,0.1-0.3,0.2c-0.2,0.1-0.3,0.2-0.4,0.2c-0.1,0.1-0.2,0.1-0.3,0.1
	c-0.1,0-0.1,0-0.2,0c-0.1,0-0.1,0-0.1-0.1c0-0.1-0.1-0.2-0.1-0.3c0-0.2,0-0.4-0.1-0.6c0-0.2-0.1-0.5-0.2-0.8
	c-0.1-0.3-0.2-0.6-0.4-0.9c-0.2-0.2-0.3-0.4-0.5-0.5c-0.2-0.1-0.3-0.2-0.5-0.3c-0.2,0-0.3-0.1-0.5,0c-0.2,0-0.3,0.1-0.5,0.2
	c-0.2,0.2-0.4,0.3-0.5,0.6c-0.1,0.2-0.1,0.5-0.1,0.8c0,0.3,0,0.6,0.1,0.9c0.1,0.3,0.1,0.7,0.2,1c0.1,0.4,0.1,0.7,0.1,1.1
	c0,0.4,0,0.7-0.1,1.1c-0.1,0.4-0.2,0.7-0.5,1C176.1,53.5,175.8,53.8,175.4,54.1 M169.4,42.4c0.5-0.5,0.8-0.9,1.1-1.3
	c0.3-0.4,0.5-0.9,0.6-1.3c0.1-0.4,0.1-0.9-0.1-1.3c-0.1-0.4-0.4-0.9-0.8-1.3c-0.4-0.4-0.9-0.7-1.3-0.8c-0.5-0.1-0.9-0.1-1.3-0.1
	c-0.4,0.1-0.9,0.3-1.3,0.6c-0.4,0.3-0.9,0.6-1.3,1c-0.5,0.5-0.9,0.9-1.2,1.4c-0.3,0.4-0.5,0.9-0.6,1.3c-0.1,0.4-0.1,0.9,0.1,1.3
	c0.1,0.4,0.4,0.9,0.9,1.3c0.4,0.4,0.9,0.7,1.3,0.8c0.4,0.1,0.9,0.1,1.4,0.1c0.5-0.1,0.9-0.3,1.3-0.6C168.6,43.2,169,42.8,169.4,42.4
	z M171.3,44.2c-0.7,0.7-1.4,1.3-2.2,1.6c-0.7,0.4-1.5,0.6-2.2,0.6c-0.7,0-1.5-0.1-2.2-0.4c-0.7-0.3-1.4-0.8-2.1-1.5
	c-0.7-0.7-1.2-1.3-1.5-2c-0.3-0.7-0.5-1.4-0.4-2.1c0-0.7,0.2-1.4,0.6-2.1c0.4-0.7,1-1.5,1.7-2.2c0.7-0.7,1.4-1.2,2.2-1.6
	c0.7-0.4,1.5-0.6,2.2-0.6c0.7,0,1.5,0.1,2.2,0.4c0.7,0.3,1.4,0.8,2.1,1.5c0.7,0.7,1.1,1.3,1.5,2c0.3,0.7,0.5,1.4,0.4,2.1
	c0,0.7-0.2,1.4-0.6,2.1C172.7,42.7,172.1,43.4,171.3,44.2z M160.1,30.8c0.2-0.3,0.3-0.7,0.3-1c0-0.3-0.1-0.7-0.4-1
	c-0.1-0.1-0.2-0.2-0.3-0.3c-0.1-0.1-0.3-0.2-0.5-0.4l-0.9-0.6l-1.9,2.9l1,0.7c0.3,0.2,0.6,0.3,0.8,0.4c0.3,0.1,0.5,0.1,0.7,0.1
	c0.2,0,0.4-0.1,0.6-0.2C159.8,31.2,160,31,160.1,30.8z M158.1,39.5c0,0.1-0.1,0.1-0.1,0.1c0,0-0.1,0-0.2,0c-0.1,0-0.2-0.1-0.4-0.2
	c-0.2-0.1-0.4-0.2-0.6-0.4c-0.2-0.1-0.4-0.3-0.5-0.4c-0.1-0.1-0.2-0.2-0.3-0.3c-0.1-0.1-0.1-0.2-0.1-0.2c0-0.1,0-0.1,0-0.2l0.6-2.9
	c0.1-0.3,0.1-0.6,0.1-0.9c0-0.3,0-0.5,0-0.7c0-0.2-0.1-0.4-0.2-0.6c-0.1-0.2-0.3-0.3-0.5-0.5l-0.6-0.4l-2.6,3.8
	c0,0.1-0.1,0.1-0.1,0.1c-0.1,0-0.1,0-0.2,0c-0.1,0-0.2-0.1-0.4-0.1c-0.1-0.1-0.3-0.2-0.5-0.3c-0.2-0.1-0.4-0.3-0.5-0.4
	c-0.1-0.1-0.2-0.2-0.3-0.3c-0.1-0.1-0.1-0.1-0.1-0.2c0-0.1,0-0.1,0-0.2l6.2-9.2c0.2-0.2,0.3-0.4,0.5-0.4c0.2,0,0.4,0,0.5,0.1
	l2.6,1.8c0.3,0.2,0.5,0.3,0.6,0.5c0.2,0.1,0.3,0.2,0.4,0.4c0.4,0.3,0.7,0.7,0.9,1c0.2,0.4,0.4,0.7,0.5,1.1c0.1,0.4,0.1,0.8,0,1.2
	c-0.1,0.4-0.3,0.8-0.5,1.2c-0.2,0.3-0.5,0.6-0.8,0.8c-0.3,0.2-0.6,0.4-0.9,0.5c-0.3,0.1-0.6,0.2-1,0.1c-0.4,0-0.7-0.1-1.1-0.2
	c0.1,0.2,0.2,0.4,0.2,0.6c0.1,0.2,0.1,0.4,0.1,0.6c0,0.2,0,0.5,0,0.7c0,0.3-0.1,0.5-0.1,0.9l-0.5,2.6c-0.1,0.3-0.1,0.4-0.1,0.5
	C158.2,39.3,158.1,39.4,158.1,39.5z M148.8,26.7c0.3-0.6,0.4-1.1,0.6-1.7c0.1-0.5,0.1-1,0.1-1.4c-0.1-0.4-0.3-0.8-0.5-1.2
	c-0.3-0.3-0.7-0.6-1.3-0.9c-0.6-0.2-1.1-0.3-1.5-0.3c-0.5,0.1-0.9,0.2-1.3,0.5c-0.4,0.3-0.7,0.6-1,1c-0.3,0.4-0.6,0.9-0.8,1.4
	c-0.3,0.6-0.5,1.2-0.6,1.7c-0.1,0.5-0.1,1-0.1,1.5c0.1,0.4,0.3,0.8,0.5,1.2c0.3,0.3,0.7,0.6,1.3,0.9c0.6,0.2,1.1,0.3,1.5,0.3
	c0.5,0,0.9-0.2,1.3-0.5c0.4-0.3,0.7-0.6,1-1C148.3,27.7,148.6,27.2,148.8,26.7z M151.3,27.6c-0.4,0.9-0.9,1.7-1.4,2.3
	c-0.5,0.6-1.2,1.1-1.8,1.4c-0.7,0.3-1.4,0.5-2.2,0.4c-0.8,0-1.6-0.2-2.5-0.6c-0.9-0.4-1.6-0.8-2.1-1.3c-0.6-0.5-0.9-1.1-1.2-1.7
	c-0.2-0.7-0.3-1.4-0.2-2.2c0.1-0.8,0.4-1.7,0.8-2.7c0.4-0.9,0.9-1.7,1.4-2.3c0.5-0.6,1.1-1.1,1.8-1.4c0.7-0.3,1.4-0.5,2.2-0.4
	c0.8,0,1.6,0.2,2.5,0.6c0.9,0.4,1.6,0.8,2.1,1.3c0.6,0.5,0.9,1.1,1.2,1.7c0.2,0.7,0.3,1.4,0.2,2.2C151.9,25.7,151.7,26.6,151.3,27.6
	z M140,18c0,0.2-0.1,0.3-0.1,0.5c0,0.1-0.1,0.2-0.1,0.3c0,0.1-0.1,0.1-0.2,0.1c-0.1,0-0.1,0-0.2,0l-3-0.6l-2.1,9.6
	c0,0.1,0,0.1-0.1,0.2c-0.1,0-0.1,0.1-0.2,0.1c-0.1,0-0.2,0-0.4,0c-0.2,0-0.4,0-0.6-0.1c-0.2-0.1-0.4-0.1-0.6-0.2
	c-0.2-0.1-0.3-0.1-0.4-0.2c-0.1,0-0.1-0.1-0.2-0.2c0-0.1,0-0.1,0-0.2l2.1-9.6l-3-0.6c-0.1,0-0.1,0-0.1-0.1c0,0-0.1-0.1-0.1-0.2
	c0-0.1,0-0.2,0-0.3c0-0.1,0-0.3,0.1-0.5c0-0.2,0.1-0.3,0.1-0.5c0-0.1,0.1-0.2,0.1-0.3c0-0.1,0.1-0.1,0.1-0.1c0,0,0.1,0,0.2,0
	l8.4,1.8c0.1,0,0.1,0,0.1,0.1c0,0,0.1,0.1,0.1,0.2c0,0.1,0,0.2,0,0.3C140.1,17.6,140.1,17.8,140,18z M125.6,20.2
	c0-0.6,0-1.2-0.1-1.8c-0.1-0.5-0.3-1-0.5-1.4c-0.2-0.4-0.6-0.7-1-0.9c-0.4-0.2-0.9-0.3-1.5-0.3c-0.6,0-1.1,0.1-1.5,0.3
	c-0.4,0.2-0.7,0.5-1,0.9c-0.3,0.4-0.4,0.8-0.5,1.3c-0.1,0.5-0.2,1.1-0.2,1.6c0,0.7,0,1.3,0.1,1.8c0.1,0.5,0.3,1,0.5,1.4
	c0.2,0.4,0.6,0.7,1,0.9c0.4,0.2,0.9,0.3,1.5,0.3c0.6,0,1.1-0.1,1.5-0.3c0.4-0.2,0.7-0.5,1-0.9c0.3-0.4,0.4-0.8,0.5-1.4
	C125.6,21.4,125.6,20.8,125.6,20.2z M128.2,20.1c0,1-0.1,1.9-0.4,2.7c-0.3,0.8-0.6,1.5-1.1,2c-0.5,0.6-1.1,1-1.8,1.3
	c-0.7,0.3-1.6,0.4-2.5,0.4c-0.9,0-1.8-0.1-2.5-0.4c-0.7-0.3-1.3-0.6-1.8-1.1c-0.5-0.5-0.8-1.2-1.1-1.9c-0.2-0.8-0.3-1.7-0.3-2.8
	c0-1,0.1-1.9,0.4-2.7c0.3-0.8,0.6-1.5,1.1-2c0.5-0.6,1.1-1,1.8-1.3c0.7-0.3,1.6-0.4,2.6-0.4c0.9,0,1.7,0.1,2.4,0.4
	c0.7,0.2,1.3,0.6,1.8,1.1c0.5,0.5,0.8,1.2,1.1,1.9C128.1,18.2,128.2,19.1,128.2,20.1z M114.4,25.9c0,0.1,0,0.1,0,0.2
	c0,0.1-0.1,0.1-0.2,0.2c-0.1,0.1-0.2,0.1-0.3,0.2c-0.1,0.1-0.3,0.1-0.6,0.2c-0.2,0.1-0.4,0.1-0.6,0.1c-0.2,0-0.3,0-0.4,0
	c-0.1,0-0.2,0-0.2-0.1c0,0-0.1-0.1-0.1-0.1l-2.4-9.6l0,0l-1.1,10.5c0,0.1,0,0.2-0.1,0.2c0,0.1-0.1,0.1-0.2,0.2
	c-0.1,0.1-0.2,0.1-0.3,0.1c-0.1,0-0.3,0.1-0.5,0.1c-0.2,0.1-0.4,0.1-0.5,0.1c-0.2,0-0.3,0-0.4,0c-0.1,0-0.2,0-0.3-0.1
	c-0.1,0-0.1-0.1-0.2-0.1l-5.7-8.8l0,0l2.4,9.6c0,0.1,0,0.1,0,0.2c0,0.1-0.1,0.1-0.2,0.2c-0.1,0.1-0.2,0.1-0.3,0.2
	c-0.1,0.1-0.3,0.1-0.5,0.2c-0.2,0.1-0.4,0.1-0.6,0.1c-0.2,0-0.3,0-0.4,0c-0.1,0-0.2,0-0.2-0.1c0,0-0.1-0.1-0.1-0.2L98,18.7
	C98,18.4,98,18.2,98.1,18c0.1-0.2,0.3-0.3,0.6-0.4l1.6-0.4c0.3-0.1,0.5-0.1,0.7-0.1c0.2,0,0.4,0,0.6,0.1c0.2,0.1,0.3,0.2,0.5,0.3
	c0.1,0.2,0.3,0.3,0.4,0.6l4.3,6.4l0,0l0.9-7.7c0-0.3,0.1-0.5,0.1-0.7c0.1-0.2,0.1-0.4,0.2-0.5c0.1-0.1,0.2-0.3,0.4-0.3
	c0.2-0.1,0.4-0.2,0.6-0.2l1.6-0.4c0.2,0,0.3-0.1,0.4,0c0.1,0,0.2,0.1,0.3,0.1c0.1,0.1,0.2,0.1,0.2,0.3c0.1,0.1,0.1,0.2,0.2,0.4
	L114.4,25.9z M97.2,26.2c0.1,0.3,0.2,0.6,0.2,0.7c0,0.2-0.1,0.3-0.2,0.3l-3.6,1.5c-0.1,0.1-0.3,0-0.4-0.1c-0.1-0.1-0.2-0.3-0.4-0.7
	c-0.1-0.3-0.2-0.6-0.2-0.7c0-0.2,0.1-0.3,0.2-0.3l3.6-1.5c0.1,0,0.1,0,0.2,0c0.1,0,0.1,0,0.2,0.1c0.1,0.1,0.1,0.1,0.2,0.2
	C97,25.9,97.1,26,97.2,26.2z M91.6,29.9c0.3,0.5,0.5,1.1,0.6,1.6c0.1,0.5,0,1.1-0.2,1.5c-0.2,0.5-0.5,0.9-0.8,1.4
	c-0.4,0.4-0.8,0.8-1.4,1.1c-0.4,0.2-0.7,0.4-1.1,0.5c-0.3,0.1-0.7,0.2-0.9,0.3c-0.3,0.1-0.5,0.1-0.8,0.1c-0.2,0-0.4,0-0.5,0
	c-0.1,0-0.2-0.1-0.3-0.2c-0.1-0.1-0.2-0.3-0.4-0.5c-0.1-0.2-0.2-0.3-0.2-0.4c-0.1-0.1-0.1-0.2-0.1-0.3c0-0.1,0-0.2,0-0.2
	c0-0.1,0.1-0.1,0.1-0.1c0.1,0,0.2-0.1,0.4-0.1c0.2,0,0.4,0,0.7,0c0.3,0,0.6-0.1,0.9-0.2c0.4-0.1,0.7-0.3,1.1-0.5
	c0.3-0.2,0.5-0.3,0.6-0.5c0.2-0.2,0.3-0.4,0.4-0.6c0.1-0.2,0.1-0.4,0.1-0.6c0-0.2-0.1-0.4-0.2-0.6c-0.1-0.2-0.3-0.4-0.6-0.5
	c-0.2-0.1-0.5-0.1-0.8-0.1c-0.3,0-0.6,0-0.9,0.1c-0.3,0-0.7,0.1-1,0.1c-0.4,0-0.7,0.1-1.1,0.1c-0.4,0-0.7-0.1-1.1-0.2
	c-0.3-0.1-0.7-0.3-1-0.5c-0.3-0.2-0.6-0.6-0.9-1c-0.3-0.5-0.5-1-0.5-1.5c0-0.5,0-1,0.2-1.4c0.2-0.4,0.4-0.9,0.8-1.2
	c0.3-0.4,0.8-0.7,1.2-1c0.2-0.2,0.5-0.3,0.8-0.4c0.3-0.1,0.5-0.2,0.8-0.3c0.3-0.1,0.5-0.1,0.7-0.1c0.2,0,0.4,0,0.5,0
	c0.1,0,0.2,0,0.2,0.1c0,0,0.1,0.1,0.1,0.1c0.1,0.1,0.1,0.1,0.2,0.2c0.1,0.1,0.1,0.2,0.2,0.3c0.1,0.2,0.2,0.3,0.2,0.4
	c0.1,0.1,0.1,0.2,0.1,0.3c0,0.1,0,0.1,0,0.2c0,0.1-0.1,0.1-0.1,0.1c-0.1,0-0.2,0.1-0.4,0.1c-0.2,0-0.4,0-0.6,0
	c-0.2,0-0.5,0.1-0.8,0.2c-0.3,0.1-0.6,0.2-0.9,0.4c-0.2,0.1-0.4,0.3-0.5,0.5c-0.1,0.2-0.2,0.3-0.3,0.5c-0.1,0.2-0.1,0.3,0,0.5
	c0,0.2,0.1,0.3,0.2,0.5c0.1,0.2,0.3,0.4,0.6,0.5c0.2,0.1,0.5,0.1,0.8,0.1c0.3,0,0.6,0,0.9-0.1c0.3-0.1,0.7-0.1,1-0.1
	c0.4,0,0.7-0.1,1.1-0.1c0.4,0,0.7,0,1.1,0.1c0.3,0.1,0.7,0.3,1,0.5C91,29.1,91.3,29.5,91.6,29.9z M71.1,29.8c0-0.1,0-0.2,0-0.3
	c0-0.1,0.1-0.2,0.1-0.3c0.1-0.1,0.1-0.2,0.3-0.3c0.1-0.1,0.3-0.2,0.4-0.4c0.2-0.2,0.4-0.3,0.5-0.4c0.1-0.1,0.3-0.1,0.3-0.1
	c0.1,0,0.1,0,0.2,0.1c0,0.1,0,0.2,0,0.3l-0.3,2.8c0,0.1,0,0.2,0,0.2c0,0.1-0.1,0.2-0.1,0.2c-0.1,0.1-0.1,0.2-0.2,0.3
	c-0.1,0.1-0.2,0.2-0.4,0.3c-0.2,0.1-0.3,0.3-0.4,0.3c-0.1,0.1-0.2,0.1-0.3,0.1c-0.1,0-0.1,0-0.2-0.1c0-0.1-0.1-0.1-0.1-0.3
	L71.1,29.8z M79.4,35c-0.4-0.5-0.9-0.9-1.3-1.2c-0.4-0.3-0.9-0.5-1.3-0.6c-0.4-0.1-0.9-0.1-1.3,0c-0.4,0.1-0.9,0.4-1.3,0.8
	c-0.4,0.4-0.7,0.8-0.9,1.3c-0.1,0.4-0.2,0.9-0.1,1.3c0.1,0.5,0.2,0.9,0.5,1.3c0.3,0.4,0.6,0.9,1,1.3c0.5,0.5,0.9,0.9,1.3,1.2
	c0.4,0.3,0.9,0.5,1.3,0.7c0.4,0.1,0.9,0.1,1.3,0c0.4-0.1,0.9-0.4,1.3-0.8c0.4-0.4,0.7-0.8,0.9-1.3c0.1-0.4,0.2-0.9,0.1-1.4
	c-0.1-0.5-0.3-0.9-0.5-1.4C80.1,35.8,79.8,35.4,79.4,35z M81.2,33.1c0.7,0.7,1.2,1.5,1.6,2.2c0.4,0.8,0.5,1.5,0.6,2.3
	c0,0.7-0.2,1.5-0.5,2.2c-0.3,0.7-0.9,1.4-1.6,2c-0.7,0.6-1.4,1.1-2.1,1.4c-0.7,0.3-1.4,0.4-2.1,0.4c-0.7-0.1-1.4-0.3-2.1-0.7
	c-0.7-0.4-1.4-1-2.2-1.8c-0.7-0.7-1.2-1.5-1.5-2.2c-0.4-0.7-0.5-1.5-0.5-2.2c0-0.7,0.2-1.5,0.5-2.2c0.3-0.7,0.9-1.4,1.6-2.1
	c0.7-0.6,1.4-1.1,2-1.4c0.7-0.3,1.4-0.4,2.1-0.4c0.7,0.1,1.4,0.3,2.1,0.7C79.8,31.7,80.5,32.3,81.2,33.1z M68.3,38.8
	c0.1,0.1,0.3,0.2,0.3,0.3c0.1,0.1,0.2,0.2,0.2,0.3c0,0.1,0.1,0.1,0.1,0.2c0,0.1,0,0.1-0.1,0.2l-1.9,2.4l7.6,6.2c0,0,0.1,0.1,0.1,0.2
	c0,0.1,0,0.1,0,0.2c0,0.1-0.1,0.2-0.2,0.3c-0.1,0.1-0.2,0.3-0.4,0.5c-0.2,0.2-0.3,0.3-0.4,0.4c-0.1,0.1-0.2,0.2-0.3,0.2
	c-0.1,0.1-0.2,0.1-0.2,0.1c-0.1,0-0.1,0-0.2-0.1l-7.6-6.2l-1.9,2.4c0,0-0.1,0.1-0.1,0.1c-0.1,0-0.1,0-0.2,0c-0.1,0-0.2-0.1-0.3-0.1
	c-0.1-0.1-0.2-0.2-0.4-0.3c-0.1-0.1-0.3-0.2-0.4-0.3c-0.1-0.1-0.2-0.2-0.2-0.3c0-0.1-0.1-0.1-0.1-0.2c0-0.1,0-0.1,0.1-0.2l5.4-6.7
	c0,0,0.1-0.1,0.1-0.1c0.1,0,0.1,0,0.2,0c0.1,0,0.2,0.1,0.3,0.1C68,38.6,68.2,38.7,68.3,38.8z M66.4,52.4c0.7,0.4,1.2,0.8,1.6,1.2
	c0.4,0.5,0.7,1,0.9,1.6c0.2,0.6,0.2,1.2,0.1,1.8c-0.1,0.7-0.4,1.3-0.7,2.1c-0.4,0.7-0.8,1.2-1.2,1.7c-0.5,0.4-1,0.8-1.5,1
	c-0.5,0.2-1.1,0.2-1.7,0.2c-0.6-0.1-1.3-0.3-2-0.7l-6.5-3.5c-0.1,0-0.1-0.1-0.1-0.1c0-0.1,0-0.1,0-0.2c0-0.1,0.1-0.2,0.1-0.4
	c0.1-0.1,0.1-0.3,0.3-0.5c0.1-0.2,0.2-0.4,0.3-0.5c0.1-0.1,0.2-0.2,0.2-0.3c0.1-0.1,0.1-0.1,0.2-0.1c0.1,0,0.1,0,0.2,0l6.3,3.4
	c0.4,0.2,0.8,0.4,1.2,0.4c0.4,0.1,0.7,0,1,0c0.3-0.1,0.6-0.2,0.8-0.5c0.2-0.2,0.5-0.5,0.6-0.8c0.2-0.3,0.3-0.7,0.3-1
	c0-0.3,0-0.6-0.1-0.9c-0.1-0.3-0.3-0.6-0.5-0.8c-0.2-0.3-0.6-0.5-0.9-0.7l-6.5-3.5c-0.1,0-0.1-0.1-0.1-0.1c0-0.1,0-0.1,0-0.2
	c0-0.1,0.1-0.2,0.1-0.4c0.1-0.2,0.1-0.3,0.3-0.5c0.1-0.2,0.2-0.4,0.3-0.5c0.1-0.1,0.2-0.2,0.2-0.3c0.1-0.1,0.1-0.1,0.2-0.1
	c0.1,0,0.1,0,0.2,0L66.4,52.4z M54.1,67.2L54.1,67.2l4.4,3.2l1-3.3L54.1,67.2z M64.4,64.5c0.2,0,0.4,0,0.6,0c0.1,0,0.2,0.1,0.3,0.2
	c0,0.1,0,0.2,0,0.4c0,0.2-0.1,0.4-0.2,0.7c-0.1,0.3-0.2,0.5-0.2,0.7c-0.1,0.2-0.1,0.3-0.2,0.4c-0.1,0.1-0.1,0.1-0.2,0.2
	c-0.1,0-0.1,0-0.2,0l-2.6,0.1l-1.4,4.4l2,1.4c0.1,0.1,0.1,0.1,0.2,0.2c0,0.1,0.1,0.1,0.1,0.2c0,0.1,0,0.2,0,0.4
	c0,0.2-0.1,0.4-0.2,0.6c-0.1,0.3-0.2,0.5-0.2,0.6c-0.1,0.2-0.1,0.2-0.2,0.3c-0.1,0-0.2,0-0.3,0c-0.1-0.1-0.3-0.2-0.5-0.3l-9.2-6.8
	c-0.1-0.1-0.2-0.1-0.2-0.2c0-0.1-0.1-0.2-0.1-0.3c0-0.1,0-0.3,0.1-0.5c0-0.2,0.1-0.4,0.2-0.7c0.1-0.4,0.2-0.6,0.3-0.8
	c0.1-0.2,0.1-0.4,0.2-0.5c0.1-0.1,0.1-0.2,0.2-0.2c0.1,0,0.2,0,0.3,0L64.4,64.5z"/>
<path class="st5" d="M163.1,139.5L163.1,139.5l2.6,5.2l2.6-2.6L163.1,139.5z M174.2,142c0.2,0.1,0.4,0.2,0.5,0.3
	c0.1,0.1,0.2,0.2,0.2,0.3c0,0.1-0.1,0.2-0.2,0.4c-0.1,0.1-0.3,0.3-0.5,0.6c-0.2,0.2-0.4,0.4-0.6,0.6c-0.1,0.1-0.3,0.2-0.4,0.3
	c-0.1,0-0.2,0.1-0.2,0.1c-0.1,0-0.1,0-0.2-0.1l-2.5-1.2l-3.5,3.5l1.2,2.4c0,0.1,0.1,0.2,0.1,0.2c0,0.1,0,0.2,0,0.3
	c0,0.1-0.1,0.2-0.2,0.3c-0.1,0.1-0.3,0.3-0.5,0.5c-0.2,0.2-0.4,0.4-0.5,0.5c-0.1,0.1-0.3,0.2-0.4,0.2c-0.1,0-0.2-0.1-0.3-0.2
	c-0.1-0.1-0.2-0.3-0.3-0.5l-5.4-11.1c-0.1-0.1-0.1-0.2-0.1-0.3c0-0.1,0-0.2,0.1-0.3c0.1-0.1,0.2-0.2,0.3-0.4
	c0.1-0.2,0.3-0.4,0.6-0.6c0.3-0.3,0.5-0.5,0.7-0.7c0.2-0.2,0.3-0.3,0.4-0.3c0.1-0.1,0.2-0.1,0.3-0.1c0.1,0,0.2,0,0.3,0.1L174.2,142z
	 M160.4,154.5c0.1,0.2,0.2,0.3,0.3,0.4c0.1,0.1,0.1,0.2,0.1,0.3c0,0.1,0,0.2,0,0.2c0,0.1-0.1,0.1-0.1,0.1l-5.1,3.2
	c-0.2,0.1-0.4,0.2-0.6,0.1c-0.2,0-0.4-0.2-0.5-0.4l-6.3-10.1c0-0.1-0.1-0.1,0-0.2c0-0.1,0-0.1,0.1-0.2c0.1-0.1,0.2-0.2,0.3-0.3
	c0.1-0.1,0.3-0.2,0.5-0.4c0.2-0.1,0.4-0.2,0.6-0.3c0.2-0.1,0.3-0.1,0.4-0.1c0.1,0,0.2,0,0.3,0c0.1,0,0.1,0.1,0.2,0.1l5.6,8.9
	l3.5-2.2c0.1,0,0.1,0,0.2,0c0.1,0,0.1,0,0.2,0.1c0.1,0.1,0.2,0.1,0.2,0.2C160.2,154.2,160.3,154.4,160.4,154.5z M142.4,157.6
	c-0.2-0.7-0.4-1.2-0.7-1.8c-0.3-0.5-0.6-0.9-0.9-1.2c-0.4-0.3-0.8-0.5-1.3-0.6c-0.5-0.1-1-0.1-1.6,0.1c-0.6,0.2-1.1,0.5-1.5,0.8
	c-0.3,0.4-0.6,0.8-0.7,1.2c-0.1,0.5-0.2,1-0.2,1.5c0,0.6,0.2,1.1,0.3,1.7c0.2,0.7,0.4,1.3,0.7,1.8c0.3,0.5,0.6,0.9,0.9,1.3
	c0.4,0.3,0.8,0.5,1.2,0.6c0.5,0.1,1,0,1.7-0.1c0.6-0.2,1.1-0.4,1.5-0.8c0.4-0.4,0.6-0.8,0.7-1.2c0.1-0.5,0.2-1,0.1-1.6
	C142.7,158.8,142.6,158.2,142.4,157.6z M145,156.7c0.3,1,0.4,2,0.4,2.9c0,0.9-0.2,1.7-0.6,2.4c-0.3,0.7-0.9,1.3-1.5,1.9
	c-0.7,0.5-1.5,0.9-2.5,1.2c-1,0.3-1.9,0.4-2.7,0.4c-0.8,0-1.5-0.3-2.2-0.6c-0.6-0.4-1.2-0.9-1.7-1.7c-0.5-0.7-0.9-1.7-1.2-2.8
	c-0.3-1-0.4-2-0.4-2.9c0-0.9,0.2-1.7,0.6-2.4c0.3-0.7,0.9-1.3,1.5-1.9c0.7-0.5,1.5-0.9,2.5-1.2c1-0.3,1.8-0.4,2.6-0.3
	c0.8,0,1.5,0.3,2.2,0.6c0.6,0.4,1.2,0.9,1.7,1.7C144.3,154.7,144.7,155.6,145,156.7z M128.2,167c0,0.1,0,0.1-0.1,0.2
	c0,0.1-0.1,0.1-0.2,0.1c-0.1,0-0.2,0.1-0.4,0.1c-0.2,0-0.4,0-0.7,0c-0.4,0-0.8,0-0.9-0.1c-0.2,0-0.3-0.1-0.4-0.2
	c-0.1-0.1-0.1-0.1-0.2-0.2l-3.9-6.2l0,6.2c0,0.1,0,0.1-0.1,0.2c0,0.1-0.1,0.1-0.2,0.1c-0.1,0-0.2,0.1-0.4,0.1c-0.2,0-0.4,0-0.6,0
	c-0.3,0-0.5,0-0.6,0c-0.2,0-0.3,0-0.4-0.1c-0.1,0-0.2-0.1-0.2-0.1c0-0.1-0.1-0.1-0.1-0.2l0-12.3c0-0.1,0-0.1,0.1-0.2
	c0-0.1,0.1-0.1,0.2-0.1c0.1,0,0.2-0.1,0.4-0.1c0.2,0,0.4,0,0.6,0c0.3,0,0.5,0,0.6,0c0.2,0,0.3,0,0.4,0.1c0.1,0,0.2,0.1,0.2,0.1
	c0,0.1,0.1,0.1,0.1,0.2l0,5.6l3.8-5.6c0-0.1,0.1-0.2,0.2-0.2c0.1-0.1,0.2-0.1,0.3-0.1c0.1,0,0.2-0.1,0.4-0.1c0.2,0,0.4,0,0.6,0
	c0.3,0,0.5,0,0.7,0c0.2,0,0.3,0,0.4,0.1c0.1,0,0.2,0.1,0.2,0.1c0,0.1,0.1,0.1,0.1,0.2c0,0.1,0,0.2-0.1,0.4c-0.1,0.1-0.2,0.3-0.3,0.6
	l-3.6,4.7l3.9,5.9c0.1,0.3,0.2,0.5,0.3,0.6C128.2,166.8,128.2,166.9,128.2,167z M111,162.3c-0.2,0.7-0.5,1.2-0.8,1.6
	c-0.4,0.4-0.8,0.8-1.3,1c-0.5,0.2-1.1,0.3-1.7,0.4c-0.6,0-1.2-0.1-1.9-0.2c-0.4-0.1-0.8-0.3-1.2-0.4c-0.4-0.2-0.7-0.3-0.9-0.5
	c-0.3-0.2-0.5-0.3-0.6-0.5c-0.2-0.2-0.3-0.3-0.3-0.4c-0.1-0.1-0.1-0.2-0.1-0.4c0-0.2,0.1-0.4,0.1-0.7c0.1-0.2,0.1-0.4,0.2-0.5
	c0-0.1,0.1-0.2,0.2-0.3c0.1-0.1,0.1-0.1,0.2-0.1c0.1,0,0.1,0,0.2,0c0.1,0,0.2,0.1,0.3,0.3c0.1,0.2,0.3,0.3,0.5,0.5
	c0.2,0.2,0.5,0.4,0.8,0.6c0.3,0.2,0.7,0.4,1.2,0.5c0.3,0.1,0.6,0.1,0.9,0.1c0.3,0,0.5-0.1,0.7-0.2c0.2-0.1,0.4-0.2,0.5-0.4
	c0.1-0.2,0.3-0.4,0.3-0.6c0.1-0.3,0.1-0.6,0-0.8c-0.1-0.2-0.3-0.5-0.5-0.7c-0.2-0.2-0.5-0.5-0.7-0.7c-0.3-0.2-0.6-0.5-0.9-0.7
	c-0.3-0.2-0.6-0.5-0.8-0.8c-0.3-0.3-0.5-0.6-0.7-0.9c-0.2-0.3-0.3-0.7-0.3-1.1c-0.1-0.4,0-0.9,0.1-1.4c0.2-0.6,0.4-1.1,0.8-1.5
	c0.3-0.4,0.8-0.7,1.2-0.9c0.5-0.2,1-0.3,1.5-0.3c0.6,0,1.1,0.1,1.7,0.2c0.3,0.1,0.6,0.2,0.9,0.3c0.3,0.1,0.6,0.3,0.8,0.4
	c0.2,0.1,0.4,0.3,0.6,0.4c0.2,0.2,0.3,0.3,0.3,0.4c0,0.1,0.1,0.1,0.1,0.2c0,0.1,0,0.1,0,0.2c0,0.1,0,0.2,0,0.3
	c0,0.1-0.1,0.3-0.1,0.4c0,0.2-0.1,0.3-0.1,0.5c0,0.1-0.1,0.2-0.1,0.3c0,0.1-0.1,0.1-0.1,0.2c-0.1,0-0.1,0-0.2,0
	c-0.1,0-0.2-0.1-0.3-0.2c-0.1-0.1-0.3-0.3-0.5-0.5c-0.2-0.2-0.4-0.3-0.7-0.5c-0.3-0.2-0.6-0.3-1-0.4c-0.3-0.1-0.5-0.1-0.8-0.1
	c-0.2,0-0.4,0.1-0.6,0.1c-0.2,0.1-0.3,0.2-0.4,0.3c-0.1,0.2-0.2,0.3-0.2,0.5c-0.1,0.3-0.1,0.5,0,0.8c0.1,0.2,0.3,0.5,0.5,0.7
	c0.2,0.2,0.5,0.5,0.8,0.7c0.3,0.2,0.6,0.5,0.9,0.7c0.3,0.2,0.6,0.5,0.9,0.8c0.3,0.3,0.5,0.6,0.7,0.9c0.2,0.3,0.3,0.7,0.4,1.1
	C111.2,161.4,111.1,161.8,111,162.3z M94,160.2c0,0.1-0.1,0.1-0.1,0.1c-0.1,0-0.1,0-0.3,0c-0.1,0-0.2,0-0.4-0.1
	c-0.2-0.1-0.4-0.1-0.6-0.3c-0.2-0.1-0.4-0.2-0.6-0.3c-0.1-0.1-0.3-0.2-0.3-0.3c-0.1-0.1-0.1-0.1-0.1-0.2c0-0.1,0-0.1,0-0.2l5.4-11.1
	c0-0.1,0.1-0.1,0.1-0.1c0.1,0,0.1,0,0.3,0c0.1,0,0.2,0,0.4,0.1c0.2,0.1,0.4,0.1,0.6,0.3c0.2,0.1,0.4,0.2,0.6,0.3
	c0.1,0.1,0.3,0.2,0.3,0.3c0.1,0.1,0.1,0.1,0.1,0.2c0,0.1,0,0.1,0,0.2L94,160.2z"/>
<path class="st6" d="M64.3,85.1l2.9,14.8c-1.6-0.1-2.9,0-3.7,0.1c-1.6,0.3-3,1-4,2.1c-1,1.1-1.4,2.2-1.2,3.5c0.2,1,1.1,2.2,2.7,3.6
	l2.1,1.7c3.7,3.1,5.9,6.4,6.6,9.9c1,5.1-0.7,9.8-5.1,14.3c-4.3,4.5-10.1,7.4-17.4,8.9c-3.5,0.7-7.1,0.8-10.7,0.3l-2.9-15
	c2.2,0.5,4.2,0.6,5.8,0.3c1.9-0.4,3.4-1.1,4.5-2.1c1.1-1,1.6-2.1,1.3-3.3c-0.1-0.8-1.5-2.2-4-4.4c-4-3.4-6.4-7.2-7.2-11.2
	c-0.9-4.9,0.7-9.6,4.9-14.1c4.2-4.5,9.7-7.4,16.5-8.7C58.3,85.2,61.3,84.9,64.3,85.1"/>
<path class="st6" d="M212.4,54.1l2.9,14.8c-1.6-0.1-2.9,0-3.7,0.1c-1.6,0.3-3,1-4,2.1c-1,1.1-1.4,2.2-1.2,3.5c0.2,1,1.1,2.2,2.7,3.6
	l2.1,1.7c3.7,3.1,5.9,6.4,6.6,9.9c1,5.1-0.7,9.8-5.1,14.3c-4.3,4.5-10.1,7.4-17.4,8.9c-3.5,0.7-7.1,0.8-10.7,0.3l-2.9-15
	c2.2,0.5,4.2,0.6,5.8,0.3c1.9-0.4,3.4-1.1,4.5-2.1c1.1-1,1.6-2.1,1.3-3.3c-0.1-0.8-1.5-2.2-4-4.4c-4-3.4-6.4-7.2-7.2-11.2
	c-0.9-4.9,0.7-9.6,4.9-14.1c4.2-4.5,9.7-7.4,16.5-8.7C206.4,54.2,209.4,54,212.4,54.1"/>
<path class="st0" d="M215.7,90.9c3.6-0.7,7.2,1.7,7.9,5.4c0.7,3.7-1.6,7.3-5.3,8c-3.6,0.7-7.2-1.7-7.9-5.4
	C209.8,95.2,212.1,91.7,215.7,90.9"/>
<path class="st0" d="M72,120c3.6-0.7,7.2,1.7,7.9,5.4c0.7,3.7-1.6,7.3-5.3,8c-3.6,0.7-7.2-1.7-7.9-5.4C66,124.3,68.3,120.7,72,120"
	/>
</svg>
